<svg width="25" height="25" viewBox="0 0 25 25" fill="none" xmlns="http://www.w3.org/2000/svg">
<path d="M18.1919 3.76389C19.3382 3.89563 20.0931 4.98125 20.0933 6.09982V20.5002C20.0931 20.7789 19.9387 21.0349 19.6919 21.1643C19.4449 21.2936 19.1458 21.275 18.9165 21.1164L17.0317 19.8117L15.1479 21.1164C14.8913 21.294 14.5512 21.2939 14.2944 21.1164L12.4097 19.8117L10.5259 21.1164C10.2692 21.2941 9.92912 21.294 9.67236 21.1164L7.7876 19.8117L5.90381 21.1164C5.67464 21.275 5.37634 21.2934 5.12939 21.1643C4.88244 21.0349 4.72723 20.779 4.72705 20.5002V6.09982C4.72724 4.90644 5.5867 3.75021 6.86377 3.75021H17.9575L18.1919 3.76389ZM8.67725 11.4367C8.26305 11.4367 7.92728 11.7726 7.92725 12.1867C7.92751 12.6007 8.2632 12.9367 8.67725 12.9367H16.144L16.2202 12.9328C16.5982 12.8944 16.8938 12.5748 16.894 12.1867C16.894 11.7985 16.5983 11.4791 16.2202 11.4406L16.144 11.4367H8.67725ZM8.67725 7.17014C8.26303 7.17014 7.92725 7.50592 7.92725 7.92014C7.92751 8.33412 8.2632 8.67014 8.67725 8.67014H16.144L16.2202 8.66623C16.5983 8.62784 16.8938 8.30824 16.894 7.92014C16.894 7.53184 16.5984 7.21249 16.2202 7.17404L16.144 7.17014H8.67725Z" fill="#41D596"/>
</svg>
