<svg width="223" height="51" viewBox="0 0 223 51" fill="none" xmlns="http://www.w3.org/2000/svg">
<path d="M217.768 39.8014C215.008 39.8014 212.894 39.1204 211.424 37.7584C209.955 36.3964 209.22 34.1921 209.22 31.1456V18.0274H205.295V11.8446H209.22V6.19946L216.478 5.44678V11.8446H222.392V18.0274H216.478V30.7692C216.478 32.4896 217.231 33.3499 218.736 33.3499H221.747V39.8014H217.768Z" fill="#41D596"/>
<path d="M200.035 9.53394C198.816 9.53394 197.777 9.12175 196.916 8.29739C196.092 7.43718 195.68 6.41568 195.68 5.23289C195.68 4.08594 196.092 3.10028 196.916 2.27591C197.777 1.4157 198.816 0.985596 200.035 0.985596C201.289 0.985596 202.329 1.4157 203.153 2.27591C203.977 3.10028 204.39 4.08594 204.39 5.23289C204.39 6.45152 203.977 7.47302 203.153 8.29739C202.329 9.12175 201.289 9.53394 200.035 9.53394ZM196.433 39.8026V11.8458H203.691V39.8026H196.433Z" fill="#41D596"/>
<path d="M185.688 39.8008V0.553711H192.946V39.8008H185.688Z" fill="#41D596"/>
<path d="M153.508 50.5539V11.8444H160.659V16.3605C161.411 14.8193 162.469 13.5828 163.831 12.6509C165.229 11.719 167.146 11.2531 169.583 11.2531C171.519 11.2531 173.311 11.6473 174.96 12.4358C176.644 13.1885 178.114 14.2459 179.368 15.6079C180.623 16.934 181.609 18.4932 182.325 20.2853C183.042 22.0415 183.401 23.9232 183.401 25.9304C183.401 28.6185 182.773 31.0737 181.519 33.2959C180.3 35.4823 178.652 37.2386 176.573 38.5647C174.494 39.855 172.164 40.5002 169.583 40.5002C167.182 40.5002 165.3 40.0701 163.938 39.2099C162.576 38.3138 161.519 37.131 160.766 35.6615V46.2229L153.508 50.5539ZM168.401 33.9411C169.942 33.9411 171.286 33.5648 172.433 32.8121C173.616 32.0594 174.53 31.0737 175.175 29.8551C175.82 28.6006 176.143 27.2745 176.143 25.8766C176.143 24.4071 175.82 23.063 175.175 21.8444C174.53 20.6258 173.616 19.658 172.433 18.9412C171.286 18.1885 169.942 17.8122 168.401 17.8122C166.824 17.8122 165.444 18.1885 164.261 18.9412C163.078 19.6939 162.164 20.6795 161.519 21.8982C160.874 23.1168 160.551 24.4609 160.551 25.9304C160.551 27.3641 160.874 28.6902 161.519 29.9089C162.164 31.1275 163.078 32.1132 164.261 32.8658C165.444 33.5827 166.824 33.9411 168.401 33.9411Z" fill="#41D596"/>
<path d="M137.093 40.5001C134.118 40.5001 131.376 39.8729 128.867 38.6184C126.394 37.3281 124.333 35.2493 122.685 32.3819L129.19 28.2421C130.158 30.1776 131.376 31.5934 132.846 32.4894C134.315 33.3496 135.875 33.7797 137.523 33.7797C139.28 33.7797 140.659 33.3855 141.663 32.5969C142.667 31.8084 143.168 30.769 143.168 29.4787C143.168 28.2242 142.774 27.2206 141.986 26.4679C141.197 25.7153 140.14 25.1059 138.814 24.64C137.523 24.1741 136.107 23.7439 134.566 23.3497C131.663 22.597 129.351 21.3605 127.631 19.64C125.91 17.8838 125.05 15.5899 125.05 12.7583C125.05 10.5003 125.606 8.52898 126.717 6.8444C127.828 5.15982 129.369 3.85159 131.34 2.91969C133.348 1.9878 135.677 1.52185 138.33 1.52185C141.269 1.52185 143.724 2.13117 145.695 3.3498C147.667 4.56843 149.351 6.28885 150.749 8.51106L144.297 12.4895C143.401 11.02 142.469 9.94474 141.502 9.26374C140.534 8.58274 139.351 8.24224 137.953 8.24224C136.448 8.24224 135.194 8.61859 134.19 9.37127C133.222 10.124 132.738 11.1275 132.738 12.382C132.738 13.7798 133.312 14.8013 134.459 15.4465C135.642 16.0558 137.057 16.6114 138.706 17.1132C139.817 17.4716 141.054 17.9017 142.416 18.4035C143.814 18.8694 145.158 19.5325 146.448 20.3927C147.738 21.2171 148.796 22.3282 149.62 23.726C150.444 25.1239 150.857 26.8981 150.857 29.0486C150.857 31.3066 150.301 33.2959 149.19 35.0163C148.079 36.7367 146.502 38.0808 144.459 39.0485C142.416 40.0163 139.961 40.5001 137.093 40.5001Z" fill="#41D596"/>
<path d="M93.0247 50.5539V11.8444H100.175V16.3605C100.928 14.8193 101.985 13.5828 103.347 12.6509C104.745 11.719 106.663 11.2531 109.1 11.2531C111.035 11.2531 112.827 11.6473 114.476 12.4358C116.161 13.1885 117.63 14.2459 118.885 15.6079C120.139 16.934 121.125 18.4932 121.842 20.2853C122.559 22.0415 122.917 23.9232 122.917 25.9304C122.917 28.6185 122.29 31.0737 121.035 33.2959C119.817 35.4823 118.168 37.2386 116.089 38.5647C114.01 39.855 111.68 40.5002 109.1 40.5002C106.698 40.5002 104.817 40.0701 103.455 39.2099C102.093 38.3138 101.035 37.131 100.283 35.6615V46.2229L93.0247 50.5539ZM107.917 33.9411C109.458 33.9411 110.802 33.5648 111.949 32.8121C113.132 32.0594 114.046 31.0737 114.691 29.8551C115.336 28.6006 115.659 27.2745 115.659 25.8766C115.659 24.4071 115.336 23.063 114.691 21.8444C114.046 20.6258 113.132 19.658 111.949 18.9412C110.802 18.1885 109.458 17.8122 107.917 17.8122C106.34 17.8122 104.96 18.1885 103.777 18.9412C102.595 19.6939 101.681 20.6795 101.035 21.8982C100.39 23.1168 100.068 24.4609 100.068 25.9304C100.068 27.3641 100.39 28.6902 101.035 29.9089C101.681 31.1275 102.595 32.1132 103.777 32.8658C104.96 33.5827 106.34 33.9411 107.917 33.9411Z" fill="#41D596"/>
<path d="M73.4436 40.5002C70.8988 40.5002 68.5691 39.855 66.4544 38.5647C64.3755 37.2386 62.7089 35.4823 61.4544 33.2959C60.2358 31.0737 59.6264 28.6185 59.6264 25.9304C59.6264 23.9232 59.9849 22.0415 60.7017 20.2853C61.4186 18.4932 62.4042 16.934 63.6587 15.6079C64.9132 14.2459 66.3648 13.1885 68.0135 12.4358C69.6981 11.6473 71.5081 11.2531 73.4436 11.2531C75.8808 11.2531 77.7805 11.719 79.1425 12.6509C80.5045 13.5469 81.5618 14.7477 82.3145 16.253V11.8444H89.5188V39.8013H82.4758V35.2314C81.7231 36.8085 80.6478 38.0809 79.25 39.0486C77.888 40.0163 75.9525 40.5002 73.4436 40.5002ZM74.6264 33.9411C76.2393 33.9411 77.6192 33.5827 78.7661 32.8658C79.9489 32.1132 80.8629 31.1275 81.5081 29.9089C82.1532 28.6902 82.4758 27.3641 82.4758 25.9304C82.4758 24.4609 82.1532 23.1168 81.5081 21.8982C80.8629 20.6795 79.9489 19.6939 78.7661 18.9412C77.6192 18.1885 76.2393 17.8122 74.6264 17.8122C73.0852 17.8122 71.7232 18.1885 70.5404 18.9412C69.3934 19.658 68.4974 20.6258 67.8522 21.8444C67.2071 23.063 66.8845 24.4071 66.8845 25.8766C66.8845 27.2745 67.2071 28.6006 67.8522 29.8551C68.4974 31.0737 69.3934 32.0594 70.5404 32.8121C71.7232 33.5648 73.0852 33.9411 74.6264 33.9411Z" fill="#41D596"/>
<path d="M31.1089 39.801V11.8441H38.2593V15.9301C39.7289 12.776 42.5783 11.199 46.8077 11.199C48.8148 11.199 50.6249 11.6649 52.2378 12.5968C53.8507 13.5287 55.1231 14.8549 56.055 16.5753C56.9868 18.2957 57.4528 20.3387 57.4528 22.7043V39.801H50.1948V24.4785C50.1948 22.0412 49.6392 20.2849 48.5281 19.2097C47.417 18.0986 45.9654 17.543 44.1733 17.543C42.6321 17.543 41.2701 18.0986 40.0873 19.2097C38.9404 20.2849 38.3669 22.0412 38.3669 24.4785V39.801H31.1089Z" fill="#41D596"/>
<path d="M14.8367 40.5001C11.8618 40.5001 9.11987 39.8729 6.61092 38.6184C4.13782 37.3281 2.0769 35.2493 0.428162 32.3819L6.9335 28.2421C7.90124 30.1776 9.11987 31.5934 10.5894 32.4894C12.0589 33.3496 13.6181 33.7797 15.2668 33.7797C17.0231 33.7797 18.403 33.3855 19.4066 32.5969C20.4101 31.8084 20.9119 30.769 20.9119 29.4787C20.9119 28.2242 20.5177 27.2206 19.7291 26.4679C18.9406 25.7153 17.8833 25.1059 16.5571 24.64C15.2668 24.1741 13.851 23.7439 12.3098 23.3497C9.40661 22.597 7.09479 21.3605 5.37437 19.64C3.65395 17.8838 2.79374 15.5899 2.79374 12.7583C2.79374 10.5003 3.34929 8.52898 4.4604 6.8444C5.5715 5.15982 7.11271 3.85159 9.08403 2.91969C11.0912 1.9878 13.4209 1.52185 16.0732 1.52185C19.0123 1.52185 21.4675 2.13117 23.4388 3.3498C25.4101 4.56843 27.0947 6.28885 28.4925 8.51106L22.0409 12.4895C21.1449 11.02 20.213 9.94474 19.2453 9.26374C18.2775 8.58274 17.0947 8.24224 15.6969 8.24224C14.1915 8.24224 12.9371 8.61859 11.9335 9.37127C10.9657 10.124 10.4819 11.1275 10.4819 12.382C10.4819 13.7798 11.0553 14.8013 12.2023 15.4465C13.3851 16.0558 14.8008 16.6114 16.4496 17.1132C17.5607 17.4716 18.7972 17.9017 20.1592 18.4035C21.5571 18.8694 22.9012 19.5325 24.1915 20.3927C25.4818 21.2171 26.5391 22.3282 27.3635 23.726C28.1879 25.1239 28.6 26.8981 28.6 29.0486C28.6 31.3066 28.0445 33.2959 26.9334 35.0163C25.8223 36.7367 24.2452 38.0808 22.2022 39.0485C20.1592 40.0163 17.7041 40.5001 14.8367 40.5001Z" fill="#41D596"/>
</svg>
