<svg width="90" height="21" viewBox="0 0 90 21" fill="none" xmlns="http://www.w3.org/2000/svg">
<path d="M87.8131 16.2535C86.7091 16.2535 85.8633 15.9811 85.2754 15.4363C84.6876 14.8915 84.3937 14.0097 84.3937 12.7911V7.54383H82.8239V5.07072H84.3937V2.81267L87.2969 2.5116V5.07072H89.6625V7.54383H87.2969V12.6406C87.2969 13.3287 87.598 13.6728 88.2002 13.6728H89.4045V16.2535H87.8131Z" fill="#41D596"/>
<path d="M80.7197 4.14541C80.2323 4.14541 79.8165 3.98054 79.4724 3.65079C79.1427 3.30671 78.9778 2.89811 78.9778 2.42499C78.9778 1.96621 79.1427 1.57195 79.4724 1.2422C79.8165 0.898117 80.2323 0.726074 80.7197 0.726074C81.2215 0.726074 81.6373 0.898117 81.967 1.2422C82.2968 1.57195 82.4616 1.96621 82.4616 2.42499C82.4616 2.91244 82.2968 3.32104 81.967 3.65079C81.6373 3.98054 81.2215 4.14541 80.7197 4.14541ZM79.2789 16.2529V5.07014H82.1821V16.2529H79.2789Z" fill="#41D596"/>
<path d="M74.9811 16.2524V0.553589H77.8843V16.2524H74.9811Z" fill="#41D596"/>
<path d="M62.1091 20.5537V5.06993H64.9693V6.87637C65.2704 6.25989 65.6933 5.76527 66.2381 5.39251C66.7973 5.01975 67.5643 4.83337 68.5392 4.83337C69.3134 4.83337 70.0302 4.99108 70.6897 5.30649C71.3636 5.60756 71.9514 6.0305 72.4532 6.5753C72.955 7.10576 73.3492 7.72942 73.636 8.44626C73.9227 9.14876 74.0661 9.90145 74.0661 10.7043C74.0661 11.7796 73.8152 12.7616 73.3134 13.6505C72.8259 14.5251 72.1664 15.2276 71.3349 15.758C70.5034 16.2742 69.5715 16.5322 68.5392 16.5322C67.5786 16.5322 66.826 16.3602 66.2812 16.0161C65.7364 15.6577 65.3134 15.1846 65.0123 14.5968V18.8213L62.1091 20.5537ZM68.0661 13.9086C68.6826 13.9086 69.2202 13.7581 69.679 13.457C70.1521 13.1559 70.5177 12.7616 70.7757 12.2742C71.0338 11.7724 71.1628 11.2419 71.1628 10.6828C71.1628 10.095 71.0338 9.55736 70.7757 9.06991C70.5177 8.58246 70.1521 8.19536 69.679 7.90863C69.2202 7.60755 68.6826 7.45702 68.0661 7.45702C67.4353 7.45702 66.8833 7.60755 66.4102 7.90863C65.9371 8.2097 65.5715 8.60396 65.3134 9.09141C65.0554 9.57887 64.9263 10.1165 64.9263 10.7043C64.9263 11.2778 65.0554 11.8082 65.3134 12.2957C65.5715 12.7832 65.9371 13.1774 66.4102 13.4785C66.8833 13.7652 67.4353 13.9086 68.0661 13.9086Z" fill="#41D596"/>
<path d="M55.5431 16.5325C54.3531 16.5325 53.2563 16.2816 52.2528 15.7798C51.2635 15.2637 50.4392 14.4321 49.7797 13.2852L52.3818 11.6293C52.7689 12.4035 53.2563 12.9698 53.8442 13.3282C54.432 13.6723 55.0556 13.8443 55.7151 13.8443C56.4176 13.8443 56.9696 13.6866 57.371 13.3712C57.7724 13.0558 57.9732 12.64 57.9732 12.1239C57.9732 11.6221 57.8155 11.2207 57.5 10.9196C57.1846 10.6185 56.7617 10.3748 56.2312 10.1884C55.7151 10.002 55.1488 9.83 54.5323 9.6723C53.371 9.37122 52.4463 8.8766 51.7581 8.18843C51.07 7.48593 50.7259 6.56837 50.7259 5.43576C50.7259 4.53254 50.9481 3.74401 51.3926 3.07018C51.837 2.39635 52.4535 1.87306 53.242 1.5003C54.0449 1.12754 54.9768 0.941162 56.0377 0.941162C57.2133 0.941162 58.1954 1.18489 58.9839 1.67234C59.7724 2.15979 60.4463 2.84796 61.0054 3.73685L58.4248 5.32823C58.0664 4.74042 57.6936 4.31032 57.3065 4.03792C56.9194 3.76552 56.4463 3.62932 55.8872 3.62932C55.285 3.62932 54.7832 3.77986 54.3818 4.08093C53.9947 4.382 53.8011 4.78343 53.8011 5.28522C53.8011 5.84436 54.0305 6.25296 54.4893 6.51102C54.9624 6.75475 55.5287 6.97697 56.1882 7.17769C56.6327 7.32105 57.1273 7.4931 57.6721 7.69381C58.2312 7.88019 58.7689 8.14542 59.285 8.48951C59.8011 8.81925 60.2241 9.2637 60.5538 9.82283C60.8835 10.382 61.0484 11.0916 61.0484 11.9519C61.0484 12.8551 60.8262 13.6508 60.3818 14.3389C59.9373 15.0271 59.3065 15.5647 58.4893 15.9518C57.6721 16.3389 56.69 16.5325 55.5431 16.5325Z" fill="#41D596"/>
<path d="M37.9157 20.5537V5.06993H40.7759V6.87637C41.077 6.25989 41.4999 5.76527 42.0447 5.39251C42.6039 5.01975 43.3709 4.83337 44.3458 4.83337C45.12 4.83337 45.8368 4.99108 46.4963 5.30649C47.1701 5.60756 47.758 6.0305 48.2597 6.5753C48.7615 7.10576 49.1558 7.72942 49.4425 8.44626C49.7293 9.14876 49.8726 9.90145 49.8726 10.7043C49.8726 11.7796 49.6217 12.7616 49.1199 13.6505C48.6325 14.5251 47.973 15.2276 47.1415 15.758C46.3099 16.2742 45.378 16.5322 44.3458 16.5322C43.3852 16.5322 42.6325 16.3602 42.0877 16.0161C41.5429 15.6577 41.12 15.1846 40.8189 14.5968V18.8213L37.9157 20.5537ZM43.8727 13.9086C44.4892 13.9086 45.0268 13.7581 45.4856 13.457C45.9587 13.1559 46.3243 12.7616 46.5823 12.2742C46.8404 11.7724 46.9694 11.2419 46.9694 10.6828C46.9694 10.095 46.8404 9.55736 46.5823 9.06991C46.3243 8.58246 45.9587 8.19536 45.4856 7.90863C45.0268 7.60755 44.4892 7.45702 43.8727 7.45702C43.2418 7.45702 42.6899 7.60755 42.2168 7.90863C41.7436 8.2097 41.3781 8.60396 41.12 9.09141C40.8619 9.57887 40.7329 10.1165 40.7329 10.7043C40.7329 11.2778 40.8619 11.8082 41.12 12.2957C41.3781 12.7832 41.7436 13.1774 42.2168 13.4785C42.6899 13.7652 43.2418 13.9086 43.8727 13.9086Z" fill="#41D596"/>
<path d="M30.0832 16.5322C29.0653 16.5322 28.1334 16.2742 27.2876 15.758C26.456 15.2276 25.7894 14.5251 25.2876 13.6505C24.8001 12.7616 24.5564 11.7796 24.5564 10.7043C24.5564 9.90145 24.6998 9.14876 24.9865 8.44626C25.2732 7.72942 25.6675 7.10576 26.1693 6.5753C26.6711 6.0305 27.2517 5.60756 27.9112 5.30649C28.585 4.99108 29.3091 4.83337 30.0832 4.83337C31.0582 4.83337 31.818 5.01975 32.3628 5.39251C32.9076 5.75093 33.3305 6.23122 33.6316 6.83336V5.06993H36.5133V16.2527H33.6961V14.4247C33.3951 15.0555 32.965 15.5645 32.4058 15.9516C31.861 16.3387 31.0868 16.5322 30.0832 16.5322ZM30.5564 13.9086C31.2015 13.9086 31.7535 13.7652 32.2123 13.4785C32.6854 13.1774 33.051 12.7832 33.309 12.2957C33.5671 11.8082 33.6961 11.2778 33.6961 10.7043C33.6961 10.1165 33.5671 9.57887 33.309 9.09142C33.051 8.60396 32.6854 8.2097 32.2123 7.90863C31.7535 7.60755 31.2015 7.45702 30.5564 7.45702C29.9399 7.45702 29.3951 7.60755 28.922 7.90863C28.4632 8.19536 28.1048 8.58246 27.8467 9.06991C27.5886 9.55736 27.4596 10.095 27.4596 10.6828C27.4596 11.2419 27.5886 11.7724 27.8467 12.2742C28.1048 12.7616 28.4632 13.1559 28.922 13.457C29.3951 13.7581 29.9399 13.9086 30.5564 13.9086Z" fill="#41D596"/>
<path d="M13.1494 16.2523V5.06959H16.0096V6.70399C16.5974 5.44234 17.7371 4.81152 19.4289 4.81152C20.2318 4.81152 20.9558 4.9979 21.6009 5.37066C22.2461 5.74342 22.755 6.27388 23.1278 6.96205C23.5006 7.65022 23.6869 8.46742 23.6869 9.41365V16.2523H20.7837V10.1233C20.7837 9.14842 20.5615 8.44591 20.1171 8.01581C19.6726 7.57136 19.092 7.34914 18.3751 7.34914C17.7586 7.34914 17.2138 7.57136 16.7407 8.01581C16.282 8.44591 16.0526 9.14842 16.0526 10.1233V16.2523H13.1494Z" fill="#41D596"/>
<path d="M6.64048 16.5325C5.45053 16.5325 4.35376 16.2816 3.35018 15.7798C2.36094 15.2637 1.53657 14.4321 0.877075 13.2852L3.47921 11.6293C3.86631 12.4035 4.35376 12.9698 4.94157 13.3282C5.52938 13.6723 6.15303 13.8443 6.81253 13.8443C7.51503 13.8443 8.067 13.6866 8.46843 13.3712C8.86986 13.0558 9.07058 12.64 9.07058 12.1239C9.07058 11.6221 8.91287 11.2207 8.59746 10.9196C8.28205 10.6185 7.85911 10.3748 7.32865 10.1884C6.81253 10.002 6.24622 9.83 5.62974 9.6723C4.46845 9.37122 3.54373 8.8766 2.85556 8.18843C2.16739 7.48593 1.82331 6.56837 1.82331 5.43576C1.82331 4.53254 2.04553 3.74401 2.48997 3.07018C2.93441 2.39635 3.5509 1.87306 4.33942 1.5003C5.14228 1.12754 6.07418 0.941162 7.13511 0.941162C8.31073 0.941162 9.2928 1.18489 10.0813 1.67234C10.8699 2.15979 11.5437 2.84796 12.1028 3.73685L9.52219 5.32823C9.16377 4.74042 8.79101 4.31032 8.40391 4.03792C8.01682 3.76552 7.5437 3.62932 6.98457 3.62932C6.38242 3.62932 5.88063 3.77986 5.4792 4.08093C5.09211 4.382 4.89856 4.78343 4.89856 5.28522C4.89856 5.84436 5.12795 6.25296 5.58673 6.51102C6.05984 6.75475 6.62615 6.97697 7.28564 7.17769C7.73008 7.32105 8.2247 7.4931 8.7695 7.69381C9.32864 7.88019 9.86627 8.14542 10.3824 8.48951C10.8985 8.81925 11.3215 9.2637 11.6512 9.82283C11.981 10.382 12.1458 11.0916 12.1458 11.9519C12.1458 12.8551 11.9236 13.6508 11.4792 14.3389C11.0347 15.0271 10.4039 15.5647 9.5867 15.9518C8.7695 16.3389 7.78743 16.5325 6.64048 16.5325Z" fill="#41D596"/>
</svg>
