<svg width="25" height="25" viewBox="0 0 25 25" fill="none" xmlns="http://www.w3.org/2000/svg">
<path d="M4.28113 20.1756C4.28113 16.7949 7.10546 14.0544 12.8769 14.0544C18.6484 14.0544 21.4727 16.7949 21.4727 20.1756C21.4727 20.7134 21.0803 21.1494 20.5963 21.1494H5.15756C4.67352 21.1494 4.28113 20.7134 4.28113 20.1756Z" stroke="#1A1A1A" stroke-width="1.5"/>
<path d="M4.28113 20.1756C4.28113 16.7949 7.10546 14.0544 12.8769 14.0544C18.6484 14.0544 21.4727 16.7949 21.4727 20.1756C21.4727 20.7134 21.0803 21.1494 20.5963 21.1494H5.15756C4.67352 21.1494 4.28113 20.7134 4.28113 20.1756Z" stroke="black" stroke-opacity="0.2" stroke-width="1.5"/>
<path d="M16.1004 7.18119C16.1004 8.96144 14.6572 10.4046 12.8769 10.4046C11.0967 10.4046 9.6535 8.96144 9.6535 7.18119C9.6535 5.40094 11.0967 3.95776 12.8769 3.95776C14.6572 3.95776 16.1004 5.40094 16.1004 7.18119Z" stroke="#1A1A1A" stroke-width="1.5"/>
<path d="M16.1004 7.18119C16.1004 8.96144 14.6572 10.4046 12.8769 10.4046C11.0967 10.4046 9.6535 8.96144 9.6535 7.18119C9.6535 5.40094 11.0967 3.95776 12.8769 3.95776C14.6572 3.95776 16.1004 5.40094 16.1004 7.18119Z" stroke="black" stroke-opacity="0.2" stroke-width="1.5"/>
</svg>
