<svg width="25" height="25" viewBox="0 0 25 25" fill="none" xmlns="http://www.w3.org/2000/svg">
<path d="M8.07106 6.65553V7.40553C8.33781 7.40553 8.58449 7.26384 8.7189 7.03343L8.07106 6.65553ZM9.60531 4.02539V3.27539C9.33856 3.27539 9.09188 3.41707 8.95747 3.64749L9.60531 4.02539ZM15.3039 4.02539L15.9518 3.64749C15.8174 3.41707 15.5707 3.27539 15.3039 3.27539V4.02539ZM16.8382 6.65553L16.1903 7.03343C16.3248 7.26384 16.5714 7.40553 16.8382 7.40553V6.65553ZM3.6875 17.8336H4.4375V8.84731H3.6875H2.9375V17.8336H3.6875ZM5.87928 6.65553V7.40553H8.07106V6.65553V5.90553H5.87928V6.65553ZM8.07106 6.65553L8.7189 7.03343L10.2531 4.40329L9.60531 4.02539L8.95747 3.64749L7.42323 6.27762L8.07106 6.65553ZM9.60531 4.02539V4.77539H15.3039V4.02539V3.27539H9.60531V4.02539ZM15.3039 4.02539L14.6561 4.40329L16.1903 7.03343L16.8382 6.65553L17.486 6.27762L15.9518 3.64749L15.3039 4.02539ZM16.8382 6.65553V7.40553H19.03V6.65553V5.90553H16.8382V6.65553ZM21.2217 8.84731H20.4717V17.8336H21.2217H21.9717V8.84731H21.2217ZM21.2217 17.8336H20.4717C20.4717 18.6299 19.8262 19.2754 19.03 19.2754V20.0254V20.7754C20.6547 20.7754 21.9717 19.4583 21.9717 17.8336H21.2217ZM19.03 6.65553V7.40553C19.8262 7.40553 20.4717 8.05103 20.4717 8.84731H21.2217H21.9717C21.9717 7.22261 20.6547 5.90553 19.03 5.90553V6.65553ZM3.6875 8.84731H4.4375C4.4375 8.05103 5.08301 7.40553 5.87928 7.40553V6.65553V5.90553C4.25458 5.90553 2.9375 7.22261 2.9375 8.84731H3.6875ZM5.87928 20.0254V19.2754C5.08301 19.2754 4.4375 18.6299 4.4375 17.8336H3.6875H2.9375C2.9375 19.4583 4.25458 20.7754 5.87928 20.7754V20.0254ZM15.7423 12.7925H14.9923C14.9923 14.194 13.8561 15.3302 12.4546 15.3302V16.0802V16.8302C14.6846 16.8302 16.4923 15.0225 16.4923 12.7925H15.7423ZM12.4546 16.0802V15.3302C11.0531 15.3302 9.91695 14.194 9.91695 12.7925H9.16695H8.41695C8.41695 15.0225 10.2247 16.8302 12.4546 16.8302V16.0802ZM9.16695 12.7925H9.91695C9.91695 11.391 11.0531 10.2548 12.4546 10.2548V9.50484V8.75484C10.2247 8.75484 8.41695 10.5626 8.41695 12.7925H9.16695ZM12.4546 9.50484V10.2548C13.8561 10.2548 14.9923 11.391 14.9923 12.7925H15.7423H16.4923C16.4923 10.5626 14.6846 8.75484 12.4546 8.75484V9.50484ZM19.03 20.0254V19.2754H5.87928V20.0254V20.7754H19.03V20.0254Z" fill="white"/>
</svg>
