<svg width="25" height="25" viewBox="0 0 25 25" fill="none" xmlns="http://www.w3.org/2000/svg">
<path d="M7.69325 7.13014V7.88014C7.96 7.88014 8.20668 7.73845 8.34109 7.50804L7.69325 7.13014ZM9.2275 4.5V3.75C8.96075 3.75 8.71407 3.89168 8.57967 4.1221L9.2275 4.5ZM14.9261 4.5L15.574 4.1221C15.4396 3.89168 15.1929 3.75 14.9261 3.75V4.5ZM16.4604 7.13014L15.8125 7.50804C15.9469 7.73845 16.1936 7.88014 16.4604 7.88014V7.13014ZM3.30969 18.3082H4.05969V9.32192H3.30969H2.55969V18.3082H3.30969ZM5.50147 7.13014V7.88014H7.69325V7.13014V6.38014H5.50147V7.13014ZM7.69325 7.13014L8.34109 7.50804L9.87533 4.8779L9.2275 4.5L8.57967 4.1221L7.04542 6.75223L7.69325 7.13014ZM9.2275 4.5V5.25H14.9261V4.5V3.75H9.2275V4.5ZM14.9261 4.5L14.2783 4.8779L15.8125 7.50804L16.4604 7.13014L17.1082 6.75223L15.574 4.1221L14.9261 4.5ZM16.4604 7.13014V7.88014H18.6522V7.13014V6.38014H16.4604V7.13014ZM20.8439 9.32192H20.0939V18.3082H20.8439H21.5939V9.32192H20.8439ZM20.8439 18.3082H20.0939C20.0939 19.1045 19.4484 19.75 18.6522 19.75V20.5V21.25C20.2769 21.25 21.5939 19.9329 21.5939 18.3082H20.8439ZM18.6522 7.13014V7.88014C19.4484 7.88014 20.0939 8.52564 20.0939 9.32192H20.8439H21.5939C21.5939 7.69722 20.2769 6.38014 18.6522 6.38014V7.13014ZM3.30969 9.32192H4.05969C4.05969 8.52564 4.7052 7.88014 5.50147 7.88014V7.13014V6.38014C3.87677 6.38014 2.55969 7.69721 2.55969 9.32192H3.30969ZM5.50147 20.5V19.75C4.7052 19.75 4.05969 19.1045 4.05969 18.3082H3.30969H2.55969C2.55969 19.9329 3.87677 21.25 5.50147 21.25V20.5ZM15.3645 13.2671H14.6145C14.6145 14.6686 13.4783 15.8048 12.0768 15.8048V16.5548V17.3048C14.3068 17.3048 16.1145 15.4971 16.1145 13.2671H15.3645ZM12.0768 16.5548V15.8048C10.6753 15.8048 9.53914 14.6686 9.53914 13.2671H8.78914H8.03914C8.03914 15.4971 9.84687 17.3048 12.0768 17.3048V16.5548ZM8.78914 13.2671H9.53914C9.53914 11.8656 10.6753 10.7295 12.0768 10.7295V9.97945V9.22945C9.84687 9.22945 8.03914 11.0372 8.03914 13.2671H8.78914ZM12.0768 9.97945V10.7295C13.4783 10.7295 14.6145 11.8656 14.6145 13.2671H15.3645H16.1145C16.1145 11.0372 14.3068 9.22945 12.0768 9.22945V9.97945ZM18.6522 20.5V19.75H5.50147V20.5V21.25H18.6522V20.5Z" fill="#8E8E8E"/>
</svg>
