<svg width="24" height="25" viewBox="0 0 24 25" fill="none" xmlns="http://www.w3.org/2000/svg">
<path d="M7.61647 7.52857V8.27857C7.88322 8.27857 8.1299 8.13689 8.26431 7.90648L7.61647 7.52857ZM9.15072 4.89844V4.14844C8.88397 4.14844 8.63729 4.29012 8.50288 4.52053L9.15072 4.89844ZM14.8493 4.89844L15.4972 4.52053C15.3628 4.29012 15.1161 4.14844 14.8493 4.14844V4.89844ZM16.3836 7.52857L15.7358 7.90648C15.8702 8.13689 16.1168 8.27857 16.3836 8.27857V7.52857ZM3.23291 18.7067H3.98291V9.72035H3.23291H2.48291V18.7067H3.23291ZM5.42469 7.52857V8.27857H7.61647V7.52857V6.77857H5.42469V7.52857ZM7.61647 7.52857L8.26431 7.90648L9.79855 5.27634L9.15072 4.89844L8.50288 4.52053L6.96864 7.15067L7.61647 7.52857ZM9.15072 4.89844V5.64844H14.8493V4.89844V4.14844H9.15072V4.89844ZM14.8493 4.89844L14.2015 5.27634L15.7358 7.90648L16.3836 7.52857L17.0314 7.15067L15.4972 4.52053L14.8493 4.89844ZM16.3836 7.52857V8.27857H18.5754V7.52857V6.77857H16.3836V7.52857ZM20.7672 9.72036H20.0172V18.7067H20.7672H21.5172V9.72036H20.7672ZM20.7672 18.7067H20.0172C20.0172 19.5029 19.3716 20.1484 18.5754 20.1484V20.8984V21.6484C20.2001 21.6484 21.5172 20.3314 21.5172 18.7067H20.7672ZM18.5754 7.52857V8.27857C19.3716 8.27857 20.0172 8.92408 20.0172 9.72036H20.7672H21.5172C21.5172 8.09565 20.2001 6.77857 18.5754 6.77857V7.52857ZM3.23291 9.72035H3.98291C3.98291 8.92408 4.62842 8.27857 5.42469 8.27857V7.52857V6.77857C3.79999 6.77857 2.48291 8.09565 2.48291 9.72035H3.23291ZM5.42469 20.8984V20.1484C4.62842 20.1484 3.98291 19.5029 3.98291 18.7067H3.23291H2.48291C2.48291 20.3314 3.79999 21.6484 5.42469 21.6484V20.8984ZM15.2877 13.6656H14.5377C14.5377 15.0671 13.4015 16.2032 12 16.2032V16.9532V17.7032C14.23 17.7032 16.0377 15.8955 16.0377 13.6656H15.2877ZM12 16.9532V16.2032C10.5985 16.2032 9.46236 15.0671 9.46236 13.6656H8.71236H7.96236C7.96236 15.8955 9.77009 17.7032 12 17.7032V16.9532ZM8.71236 13.6656H9.46236C9.46236 12.264 10.5985 11.1279 12 11.1279V10.3779V9.62789C9.77009 9.62789 7.96236 11.4356 7.96236 13.6656H8.71236ZM12 10.3779V11.1279C13.4015 11.1279 14.5377 12.264 14.5377 13.6656H15.2877H16.0377C16.0377 11.4356 14.23 9.62789 12 9.62789V10.3779ZM18.5754 20.8984V20.1484H5.42469V20.8984V21.6484H18.5754V20.8984Z" fill="#3A3A3A"/>
</svg>
