<svg width="20" height="18" viewBox="0 0 20 18" fill="none" xmlns="http://www.w3.org/2000/svg">
<path d="M5.61647 3.52857V4.27857C5.88322 4.27857 6.1299 4.13689 6.26431 3.90648L5.61647 3.52857ZM7.15072 0.898438V0.148438C6.88397 0.148438 6.63729 0.290121 6.50288 0.520534L7.15072 0.898438ZM12.8493 0.898438L13.4972 0.520534C13.3628 0.290121 13.1161 0.148438 12.8493 0.148438V0.898438ZM14.3836 3.52857L13.7358 3.90648C13.8702 4.13689 14.1168 4.27857 14.3836 4.27857V3.52857ZM1.23291 14.7067H1.98291V5.72035H1.23291H0.48291V14.7067H1.23291ZM3.42469 3.52857V4.27857H5.61647V3.52857V2.77857H3.42469V3.52857ZM5.61647 3.52857L6.26431 3.90648L7.79855 1.27634L7.15072 0.898438L6.50288 0.520534L4.96864 3.15067L5.61647 3.52857ZM7.15072 0.898438V1.64844H12.8493V0.898438V0.148438H7.15072V0.898438ZM12.8493 0.898438L12.2015 1.27634L13.7358 3.90648L14.3836 3.52857L15.0314 3.15067L13.4972 0.520534L12.8493 0.898438ZM14.3836 3.52857V4.27857H16.5754V3.52857V2.77857H14.3836V3.52857ZM18.7672 5.72036H18.0172V14.7067H18.7672H19.5172V5.72036H18.7672ZM18.7672 14.7067H18.0172C18.0172 15.5029 17.3716 16.1484 16.5754 16.1484V16.8984V17.6484C18.2001 17.6484 19.5172 16.3314 19.5172 14.7067H18.7672ZM16.5754 3.52857V4.27857C17.3716 4.27857 18.0172 4.92408 18.0172 5.72036H18.7672H19.5172C19.5172 4.09565 18.2001 2.77857 16.5754 2.77857V3.52857ZM1.23291 5.72035H1.98291C1.98291 4.92408 2.62842 4.27857 3.42469 4.27857V3.52857V2.77857C1.79999 2.77857 0.48291 4.09565 0.48291 5.72035H1.23291ZM3.42469 16.8984V16.1484C2.62842 16.1484 1.98291 15.5029 1.98291 14.7067H1.23291H0.48291C0.48291 16.3314 1.79999 17.6484 3.42469 17.6484V16.8984ZM13.2877 9.66556H12.5377C12.5377 11.0671 11.4015 12.2032 10 12.2032V12.9532V13.7032C12.23 13.7032 14.0377 11.8955 14.0377 9.66556H13.2877ZM10 12.9532V12.2032C8.59852 12.2032 7.46236 11.0671 7.46236 9.66556H6.71236H5.96236C5.96236 11.8955 7.77009 13.7032 10 13.7032V12.9532ZM6.71236 9.66556H7.46236C7.46236 8.26404 8.59852 7.12789 10 7.12789V6.37789V5.62789C7.77009 5.62789 5.96236 7.43562 5.96236 9.66556H6.71236ZM10 6.37789V7.12789C11.4015 7.12789 12.5377 8.26404 12.5377 9.66556H13.2877H14.0377C14.0377 7.43562 12.23 5.62789 10 5.62789V6.37789ZM16.5754 16.8984V16.1484H3.42469V16.8984V17.6484H16.5754V16.8984Z" fill="#3A3A3A"/>
</svg>
