<svg width="25" height="25" viewBox="0 0 25 25" fill="none" xmlns="http://www.w3.org/2000/svg">
<path d="M14.926 3.75C15.1927 3.75004 15.4401 3.89169 15.5745 4.12207L16.8918 6.37988H18.6526C20.2771 6.38012 21.594 7.69771 21.594 9.32227V18.3086C21.5937 19.9329 20.2769 21.2498 18.6526 21.25H5.50122C3.8769 21.2498 2.56015 19.9329 2.55981 18.3086V9.32227C2.55981 7.69769 3.87669 6.38008 5.50122 6.37988H7.26196L8.57935 4.12207L8.63501 4.04004C8.77591 3.85845 8.9943 3.75 9.22778 3.75H14.926ZM12.0774 9.22949C9.84745 9.22949 8.03931 11.0376 8.03931 13.2676C8.03966 15.4972 9.84767 17.3047 12.0774 17.3047C14.3067 17.3042 16.1141 15.4969 16.1145 13.2676C16.1145 11.0379 14.307 9.22993 12.0774 9.22949ZM12.3362 10.7422C13.6157 10.8722 14.6145 11.9536 14.6145 13.2676L14.6018 13.5264C14.4719 14.8057 13.391 15.8043 12.0774 15.8047C10.6759 15.8047 9.53966 14.6686 9.53931 13.2676C9.53931 11.8661 10.6759 10.7295 12.0774 10.7295L12.3362 10.7422Z" fill="#41D596"/>
</svg>
