<svg width="25" height="25" viewBox="0 0 25 25" fill="none" xmlns="http://www.w3.org/2000/svg">
<path d="M15.7994 3.08932C16.0305 2.99697 16.2926 3.02501 16.4987 3.16452C16.7045 3.30406 16.8278 3.53688 16.8278 3.78561V8.02291H18.2994C19.6951 8.02291 20.8266 9.15462 20.8268 10.5503V19.0815C20.8265 20.6734 19.536 21.9643 17.944 21.9643H6.2135C4.62182 21.9642 3.33126 20.6741 3.33069 19.0825L3.32678 8.78463V8.7817L3.33167 8.70162C3.33853 8.63913 3.354 8.58354 3.37073 8.53561H3.36877C3.37059 8.53044 3.37363 8.52508 3.37561 8.51998C3.38743 8.48836 3.40031 8.46001 3.41272 8.436C3.41533 8.43098 3.41784 8.42534 3.42053 8.42037C3.43664 8.39094 3.45148 8.36764 3.46155 8.35299C3.46629 8.34611 3.47239 8.33985 3.47717 8.33346C3.48288 8.32577 3.48973 8.31843 3.49573 8.311C3.52913 8.26915 3.55829 8.2373 3.57678 8.22018C3.62672 8.17411 3.67562 8.14137 3.69983 8.12545C3.75353 8.0902 3.81287 8.05698 3.86292 8.03073C3.96893 7.97512 4.11304 7.90697 4.27991 7.83053C4.61778 7.67576 5.09496 7.46852 5.65881 7.22897C6.78878 6.74892 8.29303 6.12864 9.79358 5.51608C11.2949 4.90319 12.7969 4.29649 13.9225 3.84323C14.4851 3.61667 14.9545 3.42806 15.2828 3.29635C15.4466 3.23065 15.5757 3.17827 15.6637 3.14303C15.7073 3.12558 15.7415 3.1121 15.7643 3.10299C15.7754 3.09853 15.7848 3.09552 15.7906 3.09323C15.7933 3.09215 15.796 3.09092 15.7975 3.0903L15.7985 3.08932H15.7994ZM14.483 5.23385C13.3586 5.68663 11.8594 6.29305 10.361 6.90475C9.42506 7.28681 8.49076 7.67255 7.64807 8.02291H15.3278V4.89401C15.0808 4.99322 14.7963 5.1077 14.483 5.23385Z" fill="#41D596"/>
</svg>
